<mxfile host="Electron" modified="2023-05-21T20:24:34.479Z" agent="Mozilla/5.0 (Windows NT 10.0; Win64; x64) AppleWebKit/537.36 (KHTML, like Gecko) draw.io/21.2.8 Chrome/112.0.5615.165 Electron/24.2.0 Safari/537.36" etag="rXkcdVN0mqZvCRRc-KAY" version="21.2.8" type="device">
  <diagram name="PÃ¡gina-1" id="bDcTYF9Y5ZELjaCLBgVf">
    <mxGraphModel dx="751" dy="520" grid="1" gridSize="10" guides="1" tooltips="1" connect="1" arrows="1" fold="1" page="1" pageScale="1" pageWidth="827" pageHeight="1169" math="0" shadow="0">
      <root>
        <mxCell id="0" />
        <mxCell id="1" parent="0" />
        <mxCell id="hGI423oOinCAs15rvYJL-63" style="edgeStyle=orthogonalEdgeStyle;rounded=0;orthogonalLoop=1;jettySize=auto;html=1;entryX=0.463;entryY=0.988;entryDx=0;entryDy=0;entryPerimeter=0;" edge="1" parent="1" source="LYaz_Usm5RcHEhtAtL6u-6" target="hGI423oOinCAs15rvYJL-50">
          <mxGeometry relative="1" as="geometry" />
        </mxCell>
        <mxCell id="hGI423oOinCAs15rvYJL-103" value="extends" style="edgeLabel;html=1;align=center;verticalAlign=middle;resizable=0;points=[];" vertex="1" connectable="0" parent="hGI423oOinCAs15rvYJL-63">
          <mxGeometry x="-0.2896" y="-1" relative="1" as="geometry">
            <mxPoint as="offset" />
          </mxGeometry>
        </mxCell>
        <mxCell id="LYaz_Usm5RcHEhtAtL6u-6" value="&lt;b style=&quot;border-color: var(--border-color);&quot;&gt;Paciente&lt;/b&gt;" style="swimlane;fontStyle=1;align=center;verticalAlign=top;childLayout=stackLayout;horizontal=1;startSize=30;horizontalStack=0;resizeParent=1;resizeParentMax=0;resizeLast=0;collapsible=1;marginBottom=0;whiteSpace=wrap;html=1;" parent="1" vertex="1">
          <mxGeometry x="550" y="470" width="175" height="142" as="geometry" />
        </mxCell>
        <mxCell id="LYaz_Usm5RcHEhtAtL6u-75" value="- dni: int" style="text;strokeColor=none;fillColor=none;align=left;verticalAlign=top;spacingLeft=4;spacingRight=4;overflow=hidden;rotatable=0;points=[[0,0.5],[1,0.5]];portConstraint=eastwest;whiteSpace=wrap;html=1;" parent="LYaz_Usm5RcHEhtAtL6u-6" vertex="1">
          <mxGeometry y="30" width="175" height="26" as="geometry" />
        </mxCell>
        <mxCell id="LYaz_Usm5RcHEhtAtL6u-74" value="- domicilio: String" style="text;strokeColor=none;fillColor=none;align=left;verticalAlign=top;spacingLeft=4;spacingRight=4;overflow=hidden;rotatable=0;points=[[0,0.5],[1,0.5]];portConstraint=eastwest;whiteSpace=wrap;html=1;" parent="LYaz_Usm5RcHEhtAtL6u-6" vertex="1">
          <mxGeometry y="56" width="175" height="26" as="geometry" />
        </mxCell>
        <mxCell id="LYaz_Usm5RcHEhtAtL6u-76" value="- fechaDeAlta: LocalDate" style="text;strokeColor=none;fillColor=none;align=left;verticalAlign=top;spacingLeft=4;spacingRight=4;overflow=hidden;rotatable=0;points=[[0,0.5],[1,0.5]];portConstraint=eastwest;whiteSpace=wrap;html=1;" parent="LYaz_Usm5RcHEhtAtL6u-6" vertex="1">
          <mxGeometry y="82" width="175" height="26" as="geometry" />
        </mxCell>
        <mxCell id="LYaz_Usm5RcHEhtAtL6u-72" value="- turnos: ArrayList&amp;lt;Turno&amp;gt;" style="text;strokeColor=none;fillColor=none;align=left;verticalAlign=top;spacingLeft=4;spacingRight=4;overflow=hidden;rotatable=0;points=[[0,0.5],[1,0.5]];portConstraint=eastwest;whiteSpace=wrap;html=1;" parent="LYaz_Usm5RcHEhtAtL6u-6" vertex="1">
          <mxGeometry y="108" width="175" height="26" as="geometry" />
        </mxCell>
        <mxCell id="LYaz_Usm5RcHEhtAtL6u-8" value="" style="line;strokeWidth=1;fillColor=none;align=left;verticalAlign=middle;spacingTop=-1;spacingLeft=3;spacingRight=3;rotatable=0;labelPosition=right;points=[];portConstraint=eastwest;strokeColor=inherit;" parent="LYaz_Usm5RcHEhtAtL6u-6" vertex="1">
          <mxGeometry y="134" width="175" height="8" as="geometry" />
        </mxCell>
        <mxCell id="LYaz_Usm5RcHEhtAtL6u-14" value="Usuario" style="swimlane;fontStyle=1;align=center;verticalAlign=top;childLayout=stackLayout;horizontal=1;startSize=26;horizontalStack=0;resizeParent=1;resizeParentMax=0;resizeLast=0;collapsible=1;marginBottom=0;whiteSpace=wrap;html=1;fillColor=#bac8d3;strokeColor=#23445d;" parent="1" vertex="1">
          <mxGeometry x="563" y="194" width="160" height="164" as="geometry" />
        </mxCell>
        <mxCell id="LYaz_Usm5RcHEhtAtL6u-15" value="- username: int" style="text;strokeColor=none;fillColor=none;align=left;verticalAlign=top;spacingLeft=4;spacingRight=4;overflow=hidden;rotatable=0;points=[[0,0.5],[1,0.5]];portConstraint=eastwest;whiteSpace=wrap;html=1;" parent="LYaz_Usm5RcHEhtAtL6u-14" vertex="1">
          <mxGeometry y="26" width="160" height="26" as="geometry" />
        </mxCell>
        <mxCell id="LYaz_Usm5RcHEhtAtL6u-36" value="- password: int" style="text;strokeColor=none;fillColor=none;align=left;verticalAlign=top;spacingLeft=4;spacingRight=4;overflow=hidden;rotatable=0;points=[[0,0.5],[1,0.5]];portConstraint=eastwest;whiteSpace=wrap;html=1;" parent="LYaz_Usm5RcHEhtAtL6u-14" vertex="1">
          <mxGeometry y="52" width="160" height="26" as="geometry" />
        </mxCell>
        <mxCell id="LYaz_Usm5RcHEhtAtL6u-34" value="- nombre: String" style="text;strokeColor=none;fillColor=none;align=left;verticalAlign=top;spacingLeft=4;spacingRight=4;overflow=hidden;rotatable=0;points=[[0,0.5],[1,0.5]];portConstraint=eastwest;whiteSpace=wrap;html=1;" parent="LYaz_Usm5RcHEhtAtL6u-14" vertex="1">
          <mxGeometry y="78" width="160" height="26" as="geometry" />
        </mxCell>
        <mxCell id="LYaz_Usm5RcHEhtAtL6u-35" value="- apellido: String" style="text;strokeColor=none;fillColor=none;align=left;verticalAlign=top;spacingLeft=4;spacingRight=4;overflow=hidden;rotatable=0;points=[[0,0.5],[1,0.5]];portConstraint=eastwest;whiteSpace=wrap;html=1;" parent="LYaz_Usm5RcHEhtAtL6u-14" vertex="1">
          <mxGeometry y="104" width="160" height="26" as="geometry" />
        </mxCell>
        <mxCell id="LYaz_Usm5RcHEhtAtL6u-16" value="" style="line;strokeWidth=1;fillColor=none;align=left;verticalAlign=middle;spacingTop=-1;spacingLeft=3;spacingRight=3;rotatable=0;labelPosition=right;points=[];portConstraint=eastwest;strokeColor=inherit;" parent="LYaz_Usm5RcHEhtAtL6u-14" vertex="1">
          <mxGeometry y="130" width="160" height="8" as="geometry" />
        </mxCell>
        <mxCell id="hGI423oOinCAs15rvYJL-50" value="+ solicitarTurno: void" style="text;strokeColor=none;fillColor=none;align=left;verticalAlign=top;spacingLeft=4;spacingRight=4;overflow=hidden;rotatable=0;points=[[0,0.5],[1,0.5]];portConstraint=eastwest;whiteSpace=wrap;html=1;" vertex="1" parent="LYaz_Usm5RcHEhtAtL6u-14">
          <mxGeometry y="138" width="160" height="26" as="geometry" />
        </mxCell>
        <mxCell id="hGI423oOinCAs15rvYJL-64" style="edgeStyle=orthogonalEdgeStyle;rounded=0;orthogonalLoop=1;jettySize=auto;html=1;entryX=0.75;entryY=1;entryDx=0;entryDy=0;exitX=0.5;exitY=0;exitDx=0;exitDy=0;" edge="1" parent="1" source="LYaz_Usm5RcHEhtAtL6u-42" target="LYaz_Usm5RcHEhtAtL6u-14">
          <mxGeometry relative="1" as="geometry" />
        </mxCell>
        <mxCell id="hGI423oOinCAs15rvYJL-102" value="extends" style="edgeLabel;html=1;align=center;verticalAlign=middle;resizable=0;points=[];" vertex="1" connectable="0" parent="hGI423oOinCAs15rvYJL-64">
          <mxGeometry x="0.1052" relative="1" as="geometry">
            <mxPoint x="1" as="offset" />
          </mxGeometry>
        </mxCell>
        <mxCell id="LYaz_Usm5RcHEhtAtL6u-42" value="&lt;b style=&quot;border-color: var(--border-color);&quot;&gt;Administrador&lt;/b&gt;" style="swimlane;fontStyle=1;align=center;verticalAlign=top;childLayout=stackLayout;horizontal=1;startSize=30;horizontalStack=0;resizeParent=1;resizeParentMax=0;resizeLast=0;collapsible=1;marginBottom=0;whiteSpace=wrap;html=1;" parent="1" vertex="1">
          <mxGeometry x="740" y="470" width="250" height="246" as="geometry" />
        </mxCell>
        <mxCell id="LYaz_Usm5RcHEhtAtL6u-44" value="" style="line;strokeWidth=1;fillColor=none;align=left;verticalAlign=middle;spacingTop=-1;spacingLeft=3;spacingRight=3;rotatable=0;labelPosition=right;points=[];portConstraint=eastwest;strokeColor=inherit;" parent="LYaz_Usm5RcHEhtAtL6u-42" vertex="1">
          <mxGeometry y="30" width="250" height="8" as="geometry" />
        </mxCell>
        <mxCell id="LYaz_Usm5RcHEhtAtL6u-45" value="+ listarPaciente(Paciente): void" style="text;strokeColor=none;fillColor=none;align=left;verticalAlign=top;spacingLeft=4;spacingRight=4;overflow=hidden;rotatable=0;points=[[0,0.5],[1,0.5]];portConstraint=eastwest;whiteSpace=wrap;html=1;" parent="LYaz_Usm5RcHEhtAtL6u-42" vertex="1">
          <mxGeometry y="38" width="250" height="26" as="geometry" />
        </mxCell>
        <mxCell id="LYaz_Usm5RcHEhtAtL6u-69" value="+ agregarPaciente(Paciente): void" style="text;strokeColor=none;fillColor=none;align=left;verticalAlign=top;spacingLeft=4;spacingRight=4;overflow=hidden;rotatable=0;points=[[0,0.5],[1,0.5]];portConstraint=eastwest;whiteSpace=wrap;html=1;" parent="LYaz_Usm5RcHEhtAtL6u-42" vertex="1">
          <mxGeometry y="64" width="250" height="26" as="geometry" />
        </mxCell>
        <mxCell id="LYaz_Usm5RcHEhtAtL6u-70" value="+ modificarPaciente(Paciente): void" style="text;strokeColor=none;fillColor=none;align=left;verticalAlign=top;spacingLeft=4;spacingRight=4;overflow=hidden;rotatable=0;points=[[0,0.5],[1,0.5]];portConstraint=eastwest;whiteSpace=wrap;html=1;" parent="LYaz_Usm5RcHEhtAtL6u-42" vertex="1">
          <mxGeometry y="90" width="250" height="26" as="geometry" />
        </mxCell>
        <mxCell id="LYaz_Usm5RcHEhtAtL6u-71" value="+ eliminarPaciente(Paciente): void" style="text;strokeColor=none;fillColor=none;align=left;verticalAlign=top;spacingLeft=4;spacingRight=4;overflow=hidden;rotatable=0;points=[[0,0.5],[1,0.5]];portConstraint=eastwest;whiteSpace=wrap;html=1;" parent="LYaz_Usm5RcHEhtAtL6u-42" vertex="1">
          <mxGeometry y="116" width="250" height="26" as="geometry" />
        </mxCell>
        <mxCell id="LYaz_Usm5RcHEhtAtL6u-46" value="+ listarOdontologo(Odontologo): void" style="text;strokeColor=none;fillColor=none;align=left;verticalAlign=top;spacingLeft=4;spacingRight=4;overflow=hidden;rotatable=0;points=[[0,0.5],[1,0.5]];portConstraint=eastwest;whiteSpace=wrap;html=1;" parent="LYaz_Usm5RcHEhtAtL6u-42" vertex="1">
          <mxGeometry y="142" width="250" height="26" as="geometry" />
        </mxCell>
        <mxCell id="LYaz_Usm5RcHEhtAtL6u-66" value="+ agregarOdontologo(Odontologo): void" style="text;strokeColor=none;fillColor=none;align=left;verticalAlign=top;spacingLeft=4;spacingRight=4;overflow=hidden;rotatable=0;points=[[0,0.5],[1,0.5]];portConstraint=eastwest;whiteSpace=wrap;html=1;" parent="LYaz_Usm5RcHEhtAtL6u-42" vertex="1">
          <mxGeometry y="168" width="250" height="26" as="geometry" />
        </mxCell>
        <mxCell id="LYaz_Usm5RcHEhtAtL6u-67" value="+ modificarOdontologo(Odontologo): void" style="text;strokeColor=none;fillColor=none;align=left;verticalAlign=top;spacingLeft=4;spacingRight=4;overflow=hidden;rotatable=0;points=[[0,0.5],[1,0.5]];portConstraint=eastwest;whiteSpace=wrap;html=1;" parent="LYaz_Usm5RcHEhtAtL6u-42" vertex="1">
          <mxGeometry y="194" width="250" height="26" as="geometry" />
        </mxCell>
        <mxCell id="LYaz_Usm5RcHEhtAtL6u-68" value="+ eliminarOdontologo(Odontologo): void" style="text;strokeColor=none;fillColor=none;align=left;verticalAlign=top;spacingLeft=4;spacingRight=4;overflow=hidden;rotatable=0;points=[[0,0.5],[1,0.5]];portConstraint=eastwest;whiteSpace=wrap;html=1;" parent="LYaz_Usm5RcHEhtAtL6u-42" vertex="1">
          <mxGeometry y="220" width="250" height="26" as="geometry" />
        </mxCell>
        <mxCell id="LYaz_Usm5RcHEhtAtL6u-81" value="registrarTurno() {&lt;br&gt;&lt;span style=&quot;white-space: pre;&quot;&gt; &lt;/span&gt;mostrarFechasDisponibles();&lt;br&gt;&lt;span style=&quot;white-space: pre;&quot;&gt; &lt;/span&gt;registrarCita();&lt;br&gt;}" style="text;html=1;strokeColor=none;fillColor=none;align=left;verticalAlign=middle;whiteSpace=wrap;rounded=0;" parent="1" vertex="1">
          <mxGeometry x="550" y="790" width="200" height="63" as="geometry" />
        </mxCell>
        <mxCell id="hGI423oOinCAs15rvYJL-54" style="edgeStyle=orthogonalEdgeStyle;rounded=0;orthogonalLoop=1;jettySize=auto;html=1;entryX=0.196;entryY=1.011;entryDx=0;entryDy=0;entryPerimeter=0;" edge="1" parent="1" source="hGI423oOinCAs15rvYJL-36" target="hGI423oOinCAs15rvYJL-50">
          <mxGeometry relative="1" as="geometry" />
        </mxCell>
        <mxCell id="hGI423oOinCAs15rvYJL-104" value="extends" style="edgeLabel;html=1;align=center;verticalAlign=middle;resizable=0;points=[];" vertex="1" connectable="0" parent="hGI423oOinCAs15rvYJL-54">
          <mxGeometry x="-0.0606" y="2" relative="1" as="geometry">
            <mxPoint as="offset" />
          </mxGeometry>
        </mxCell>
        <mxCell id="hGI423oOinCAs15rvYJL-36" value="&lt;b style=&quot;border-color: var(--border-color);&quot;&gt;Odontologo&lt;/b&gt;" style="swimlane;fontStyle=1;align=center;verticalAlign=top;childLayout=stackLayout;horizontal=1;startSize=30;horizontalStack=0;resizeParent=1;resizeParentMax=0;resizeLast=0;collapsible=1;marginBottom=0;whiteSpace=wrap;html=1;" vertex="1" parent="1">
          <mxGeometry x="370" y="470" width="160" height="64" as="geometry" />
        </mxCell>
        <mxCell id="hGI423oOinCAs15rvYJL-40" value="- matricula: String" style="text;strokeColor=none;fillColor=none;align=left;verticalAlign=top;spacingLeft=4;spacingRight=4;overflow=hidden;rotatable=0;points=[[0,0.5],[1,0.5]];portConstraint=eastwest;whiteSpace=wrap;html=1;" vertex="1" parent="hGI423oOinCAs15rvYJL-36">
          <mxGeometry y="30" width="160" height="26" as="geometry" />
        </mxCell>
        <mxCell id="hGI423oOinCAs15rvYJL-38" value="" style="line;strokeWidth=1;fillColor=none;align=left;verticalAlign=middle;spacingTop=-1;spacingLeft=3;spacingRight=3;rotatable=0;labelPosition=right;points=[];portConstraint=eastwest;strokeColor=inherit;" vertex="1" parent="hGI423oOinCAs15rvYJL-36">
          <mxGeometry y="56" width="160" height="8" as="geometry" />
        </mxCell>
        <mxCell id="hGI423oOinCAs15rvYJL-92" style="edgeStyle=orthogonalEdgeStyle;rounded=0;orthogonalLoop=1;jettySize=auto;html=1;entryX=0.445;entryY=1.002;entryDx=0;entryDy=0;entryPerimeter=0;" edge="1" parent="1" source="hGI423oOinCAs15rvYJL-66" target="hGI423oOinCAs15rvYJL-91">
          <mxGeometry relative="1" as="geometry" />
        </mxCell>
        <mxCell id="hGI423oOinCAs15rvYJL-66" value="Proxy" style="swimlane;fontStyle=1;align=center;verticalAlign=top;childLayout=stackLayout;horizontal=1;startSize=26;horizontalStack=0;resizeParent=1;resizeParentMax=0;resizeLast=0;collapsible=1;marginBottom=0;whiteSpace=wrap;html=1;fillColor=#f8cecc;strokeColor=#b85450;" vertex="1" parent="1">
          <mxGeometry x="833" y="191" width="207" height="134" as="geometry" />
        </mxCell>
        <mxCell id="hGI423oOinCAs15rvYJL-68" value="" style="line;strokeWidth=1;fillColor=none;align=left;verticalAlign=middle;spacingTop=-1;spacingLeft=3;spacingRight=3;rotatable=0;labelPosition=right;points=[];portConstraint=eastwest;strokeColor=inherit;" vertex="1" parent="hGI423oOinCAs15rvYJL-66">
          <mxGeometry y="26" width="207" height="8" as="geometry" />
        </mxCell>
        <mxCell id="hGI423oOinCAs15rvYJL-69" value="+ registrarTurno(Paciente paciente, Odontologo odontologo)&lt;br&gt;" style="text;align=left;verticalAlign=top;spacingLeft=4;spacingRight=4;overflow=hidden;rotatable=0;points=[[0,0.5],[1,0.5]];portConstraint=eastwest;whiteSpace=wrap;html=1;" vertex="1" parent="hGI423oOinCAs15rvYJL-66">
          <mxGeometry y="34" width="207" height="40" as="geometry" />
        </mxCell>
        <mxCell id="hGI423oOinCAs15rvYJL-71" value="-checkearOdontologo(): void" style="text;strokeColor=none;fillColor=none;align=left;verticalAlign=top;spacingLeft=4;spacingRight=4;overflow=hidden;rotatable=0;points=[[0,0.5],[1,0.5]];portConstraint=eastwest;whiteSpace=wrap;html=1;" vertex="1" parent="hGI423oOinCAs15rvYJL-66">
          <mxGeometry y="74" width="207" height="30" as="geometry" />
        </mxCell>
        <mxCell id="hGI423oOinCAs15rvYJL-72" value="-checkearFecha(): void" style="text;strokeColor=none;fillColor=none;align=left;verticalAlign=top;spacingLeft=4;spacingRight=4;overflow=hidden;rotatable=0;points=[[0,0.5],[1,0.5]];portConstraint=eastwest;whiteSpace=wrap;html=1;" vertex="1" parent="hGI423oOinCAs15rvYJL-66">
          <mxGeometry y="104" width="207" height="30" as="geometry" />
        </mxCell>
        <mxCell id="hGI423oOinCAs15rvYJL-70" style="edgeStyle=orthogonalEdgeStyle;rounded=0;orthogonalLoop=1;jettySize=auto;html=1;entryX=0.001;entryY=0.149;entryDx=0;entryDy=0;entryPerimeter=0;strokeWidth=3;exitX=1.009;exitY=0.101;exitDx=0;exitDy=0;exitPerimeter=0;" edge="1" parent="1" source="LYaz_Usm5RcHEhtAtL6u-14" target="hGI423oOinCAs15rvYJL-66">
          <mxGeometry relative="1" as="geometry" />
        </mxCell>
        <mxCell id="hGI423oOinCAs15rvYJL-101" value="solicitud" style="edgeLabel;html=1;align=center;verticalAlign=middle;resizable=0;points=[];" vertex="1" connectable="0" parent="hGI423oOinCAs15rvYJL-70">
          <mxGeometry x="0.1659" y="1" relative="1" as="geometry">
            <mxPoint x="-7" y="-1" as="offset" />
          </mxGeometry>
        </mxCell>
        <mxCell id="hGI423oOinCAs15rvYJL-93" style="edgeStyle=orthogonalEdgeStyle;rounded=0;orthogonalLoop=1;jettySize=auto;html=1;entryX=0.545;entryY=1.024;entryDx=0;entryDy=0;entryPerimeter=0;" edge="1" parent="1" source="hGI423oOinCAs15rvYJL-79" target="hGI423oOinCAs15rvYJL-91">
          <mxGeometry relative="1" as="geometry" />
        </mxCell>
        <mxCell id="hGI423oOinCAs15rvYJL-79" value="Turno" style="swimlane;fontStyle=1;align=center;verticalAlign=top;childLayout=stackLayout;horizontal=1;startSize=26;horizontalStack=0;resizeParent=1;resizeParentMax=0;resizeLast=0;collapsible=1;marginBottom=0;whiteSpace=wrap;html=1;fillColor=#bac8d3;strokeColor=#23445d;" vertex="1" parent="1">
          <mxGeometry x="1060" y="191" width="210" height="152" as="geometry" />
        </mxCell>
        <mxCell id="hGI423oOinCAs15rvYJL-94" value="+ fechaHora: LocalDate" style="text;strokeColor=none;fillColor=none;align=left;verticalAlign=top;spacingLeft=4;spacingRight=4;overflow=hidden;rotatable=0;points=[[0,0.5],[1,0.5]];portConstraint=eastwest;whiteSpace=wrap;html=1;" vertex="1" parent="hGI423oOinCAs15rvYJL-79">
          <mxGeometry y="26" width="210" height="26" as="geometry" />
        </mxCell>
        <mxCell id="hGI423oOinCAs15rvYJL-96" value="+ paciente: Paciente" style="text;strokeColor=none;fillColor=none;align=left;verticalAlign=top;spacingLeft=4;spacingRight=4;overflow=hidden;rotatable=0;points=[[0,0.5],[1,0.5]];portConstraint=eastwest;whiteSpace=wrap;html=1;" vertex="1" parent="hGI423oOinCAs15rvYJL-79">
          <mxGeometry y="52" width="210" height="26" as="geometry" />
        </mxCell>
        <mxCell id="hGI423oOinCAs15rvYJL-95" value="+ odontologo: Odontologo" style="text;strokeColor=none;fillColor=none;align=left;verticalAlign=top;spacingLeft=4;spacingRight=4;overflow=hidden;rotatable=0;points=[[0,0.5],[1,0.5]];portConstraint=eastwest;whiteSpace=wrap;html=1;" vertex="1" parent="hGI423oOinCAs15rvYJL-79">
          <mxGeometry y="78" width="210" height="26" as="geometry" />
        </mxCell>
        <mxCell id="hGI423oOinCAs15rvYJL-80" value="" style="line;strokeWidth=1;fillColor=none;align=left;verticalAlign=middle;spacingTop=-1;spacingLeft=3;spacingRight=3;rotatable=0;labelPosition=right;points=[];portConstraint=eastwest;strokeColor=inherit;" vertex="1" parent="hGI423oOinCAs15rvYJL-79">
          <mxGeometry y="104" width="210" height="8" as="geometry" />
        </mxCell>
        <mxCell id="hGI423oOinCAs15rvYJL-81" value="+ registrarTurno(Paciente paciente, Odontologo odontologo)&lt;br&gt;" style="text;strokeColor=none;fillColor=none;align=left;verticalAlign=top;spacingLeft=4;spacingRight=4;overflow=hidden;rotatable=0;points=[[0,0.5],[1,0.5]];portConstraint=eastwest;whiteSpace=wrap;html=1;" vertex="1" parent="hGI423oOinCAs15rvYJL-79">
          <mxGeometry y="112" width="210" height="40" as="geometry" />
        </mxCell>
        <mxCell id="hGI423oOinCAs15rvYJL-87" value="Â«interfaceÂ»&lt;br&gt;&lt;b&gt;registrarTurno&lt;/b&gt;" style="swimlane;fontStyle=0;childLayout=stackLayout;horizontal=1;startSize=30;fillColor=#fad7ac;horizontalStack=0;resizeParent=1;resizeParentMax=0;resizeLast=0;collapsible=1;marginBottom=0;whiteSpace=wrap;html=1;strokeColor=#b46504;" vertex="1" parent="1">
          <mxGeometry x="950" y="30" width="200" height="70" as="geometry" />
        </mxCell>
        <mxCell id="hGI423oOinCAs15rvYJL-91" value="+ registrarTurno(Paciente paciente, Odontologo odontologo)&lt;br&gt;" style="text;strokeColor=none;fillColor=none;align=left;verticalAlign=top;spacingLeft=4;spacingRight=4;overflow=hidden;rotatable=0;points=[[0,0.5],[1,0.5]];portConstraint=eastwest;whiteSpace=wrap;html=1;" vertex="1" parent="hGI423oOinCAs15rvYJL-87">
          <mxGeometry y="30" width="200" height="40" as="geometry" />
        </mxCell>
        <mxCell id="hGI423oOinCAs15rvYJL-100" value="se tiene que permitir asignar a un paciente un turno con odontologo a una determinada fecha y hora" style="shape=callout;whiteSpace=wrap;html=1;perimeter=calloutPerimeter;size=30;position=0.16;position2=0;base=10;fontSize=9;fillColor=#f5f5f5;fontColor=#333333;strokeColor=#666666;" vertex="1" parent="1">
          <mxGeometry x="1161" y="10" width="160" height="70" as="geometry" />
        </mxCell>
        <mxCell id="hGI423oOinCAs15rvYJL-105" value="se debe permitir que cualquier usuario logueado registre un turno" style="shape=callout;whiteSpace=wrap;html=1;perimeter=calloutPerimeter;size=30;position=0.38;position2=0.38;base=9;fontSize=9;fillColor=#f5f5f5;fontColor=#333333;strokeColor=#666666;" vertex="1" parent="1">
          <mxGeometry x="720" y="123" width="160" height="71" as="geometry" />
        </mxCell>
        <mxCell id="hGI423oOinCAs15rvYJL-106" value="Solo quienes tengan un rol de administraciÃ³n pueden gestionar odontÃ³logos y pacientes" style="shape=callout;whiteSpace=wrap;html=1;perimeter=calloutPerimeter;size=30;position=0.38;position2=0.13;base=9;fontSize=9;fillColor=#f5f5f5;fontColor=#333333;strokeColor=#666666;" vertex="1" parent="1">
          <mxGeometry x="970" y="420" width="160" height="71" as="geometry" />
        </mxCell>
        <mxCell id="hGI423oOinCAs15rvYJL-107" value="Un usuario podrÃ¡ tener un Ãºnico rol y los mismos se ingresarÃ¡n directamente en la base de datos" style="shape=callout;whiteSpace=wrap;html=1;perimeter=calloutPerimeter;size=30;position=0.38;position2=0.56;base=9;fontSize=9;fillColor=#f5f5f5;fontColor=#333333;strokeColor=#666666;" vertex="1" parent="1">
          <mxGeometry x="470" y="123" width="160" height="71" as="geometry" />
        </mxCell>
        <mxCell id="hGI423oOinCAs15rvYJL-108" value="se debe permitir que cualquier usuario logueado registre un turno" style="shape=callout;whiteSpace=wrap;html=1;perimeter=calloutPerimeter;size=30;position=0.06;position2=0;base=9;fontSize=9;fillColor=#f5f5f5;fontColor=#333333;strokeColor=#666666;direction=west;" vertex="1" parent="1">
          <mxGeometry x="770" y="325" width="160" height="71" as="geometry" />
        </mxCell>
      </root>
    </mxGraphModel>
  </diagram>
</mxfile>
